<?xml version="1.0" standalone="no"?>
<!DOCTYPE svg PUBLIC "-//W3C//DTD SVG 20010904//EN"
 "http://www.w3.org/TR/2001/REC-SVG-20010904/DTD/svg10.dtd">
<svg version="1.0" xmlns="http://www.w3.org/2000/svg"
 width="917.000000pt" height="458.000000pt" viewBox="0 0 917.000000 458.000000"
 preserveAspectRatio="xMidYMid meet">

<g transform="translate(0.000000,458.000000) scale(0.100000,-0.100000)"
fill="#000000" stroke="none">
<path d="M510 2340 c0 -632 2 -1150 5 -1150 8 0 423 307 457 338 l27 25 78
-31 c125 -50 189 -63 335 -69 154 -6 246 4 373 44 324 102 597 379 683 693 98
359 15 717 -227 974 -131 139 -309 248 -486 297 -78 22 -95 23 -662 26 l-582
4 -1 -1151z m1174 947 c159 -47 256 -101 368 -206 167 -157 251 -337 264 -569
13 -249 -78 -478 -259 -649 -206 -195 -482 -272 -769 -214 -91 18 -242 73
-254 92 -14 24 -59 1 -186 -96 -76 -58 -140 -105 -143 -105 -3 0 -5 398 -5
886 l0 885 463 -3 c403 -3 470 -6 521 -21z"/>
<path d="M1475 3022 c-238 -25 -446 -206 -500 -433 -29 -125 -11 -300 43 -406
56 -109 168 -220 266 -264 167 -73 379 -68 539 12 95 49 230 186 208 213 -5 6
-45 29 -89 50 l-80 39 -56 -60 c-215 -232 -587 -113 -636 204 -28 182 60 358
215 429 166 76 373 11 465 -146 8 -12 24 -7 100 30 49 24 90 47 90 50 0 19
-64 102 -111 145 -65 58 -140 99 -224 119 -61 15 -175 24 -230 18z"/>
<path d="M3710 2714 l0 -236 -38 39 c-115 119 -332 130 -485 24 -133 -91 -207
-240 -207 -415 0 -300 203 -511 474 -494 86 6 149 32 209 87 24 23 47 41 51
41 3 0 6 -25 6 -55 l0 -55 100 0 100 0 0 650 0 650 -105 0 -105 0 0 -236z
m-169 -306 c56 -16 114 -70 146 -136 25 -51 28 -67 27 -157 0 -116 -13 -153
-75 -220 -50 -54 -113 -80 -194 -79 -100 0 -176 53 -224 154 -22 47 -26 68
-25 150 0 105 12 144 66 212 60 76 176 107 279 76z"/>
<path d="M5604 2935 c-134 -24 -262 -103 -343 -210 -97 -128 -143 -275 -143
-456 0 -320 185 -564 474 -624 207 -44 402 7 533 139 62 61 120 160 113 192
-2 12 -30 26 -93 45 -49 16 -93 29 -96 29 -4 0 -14 -20 -23 -45 -23 -60 -109
-138 -178 -161 -70 -24 -179 -23 -246 1 -106 38 -199 137 -237 250 -25 73 -31
244 -11 328 31 133 111 243 212 293 73 36 189 44 270 18 75 -23 165 -108 185
-173 9 -31 17 -41 28 -38 112 32 201 62 201 69 0 5 -16 41 -36 80 -108 213
-338 313 -610 263z"/>
<path d="M6370 2300 l0 -650 99 0 100 0 3 308 c3 306 3 307 28 352 36 64 93
100 167 107 99 9 164 -23 206 -100 21 -40 22 -54 25 -354 l3 -313 100 0 100 0
-3 363 c-3 318 -6 368 -22 409 -78 206 -387 261 -555 98 -21 -21 -42 -36 -45
-33 -3 4 -6 109 -6 235 l0 228 -100 0 -100 0 0 -650z"/>
<path d="M8368 2708 l-3 -123 -67 -3 -68 -3 0 -84 0 -85 69 0 70 0 3 -302 c3
-289 4 -305 25 -344 50 -94 145 -141 269 -131 110 8 114 12 114 111 l0 84 -63
-5 c-60 -5 -66 -4 -98 25 l-34 30 -3 266 -3 266 101 0 100 0 0 85 0 85 -57 1
c-32 0 -76 1 -98 2 l-40 2 -5 120 -5 120 -102 3 -102 3 -3 -123z"/>
<path d="M4435 2608 c-138 -18 -277 -121 -341 -254 -143 -298 11 -648 314
-713 167 -35 332 5 446 110 109 100 159 215 158 369 -1 325 -246 532 -577 488z
m216 -216 c97 -51 149 -149 149 -283 0 -175 -109 -292 -270 -292 -81 1 -132
21 -187 75 -142 139 -112 413 56 500 76 40 176 40 252 0z"/>
<path d="M7665 2609 c-110 -18 -205 -71 -254 -142 -26 -39 -56 -116 -47 -124
11 -12 171 -42 174 -34 9 27 51 78 79 97 94 63 258 31 302 -59 27 -55 29 -127
4 -128 -10 0 -83 -2 -163 -4 -216 -6 -316 -40 -387 -134 -42 -54 -56 -110 -51
-191 8 -108 64 -186 167 -234 37 -17 66 -21 151 -21 121 0 168 16 250 85 l48
41 7 -56 7 -55 97 0 97 0 -3 323 c-1 177 -5 341 -8 364 -5 44 -40 122 -72 159
-74 86 -252 137 -398 113z m273 -597 c5 -98 -35 -156 -136 -195 -56 -23 -157
-22 -201 1 -99 50 -102 182 -5 232 24 13 245 30 324 26 11 -1 16 -17 18 -64z"/>
</g>
</svg>
